<svg width="25" height="18" viewBox="0 0 25 18" fill="none" xmlns="http://www.w3.org/2000/svg">
<path fill-rule="evenodd" clip-rule="evenodd" d="M1 9.00001C1 8.75163 1.09867 8.51343 1.2743 8.3378C1.44993 8.16217 1.68813 8.0635 1.93651 8.0635L21.0249 8.0635L15.1306 2.171C14.9547 1.99515 14.8559 1.75665 14.8559 1.50796C14.8559 1.25927 14.9547 1.02076 15.1306 0.844911C15.3064 0.669059 15.5449 0.570268 15.7936 0.570268C16.0423 0.570268 16.2808 0.669061 16.4567 0.844911L23.9487 8.33696C24.0359 8.42395 24.1051 8.5273 24.1523 8.64108C24.1996 8.75485 24.2239 8.87682 24.2239 9.00001C24.2239 9.12319 24.1996 9.24516 24.1523 9.35894C24.1051 9.47272 24.0359 9.57606 23.9487 9.66305L16.4567 17.1551C16.2808 17.331 16.0423 17.4297 15.7936 17.4297C15.5449 17.4297 15.3064 17.331 15.1306 17.1551C14.9547 16.9793 14.8559 16.7407 14.8559 16.4921C14.8559 16.2434 14.9547 16.0049 15.1306 15.829L21.0249 9.93651L1.93651 9.93651C1.68813 9.93651 1.44993 9.83785 1.2743 9.66222C1.09867 9.48659 1 9.24839 1 9.00001Z" fill="#FF872C" stroke="#FF872C"/>
</svg>
