<svg width="130" height="25" viewBox="0 0 130 25" fill="none" xmlns="http://www.w3.org/2000/svg">
<path d="M17.795 2.97824L17.0504 7.14777H8.2646L7.44559 11.8385H14.2955L13.6254 15.7847H6.77549L5.21191 24.496H0L3.79725 2.97824H17.795Z" fill="white"/>
<path d="M28.591 8.19016C29.4845 8.78581 30.0057 9.60482 30.3035 10.5727L30.8247 7.52006H36.0366L33.0584 24.496H27.8465L28.4421 21.4433C27.8465 22.4857 27.0274 23.2303 25.9851 23.8259C24.9427 24.4215 23.7514 24.7194 22.4112 24.7194C20.5498 24.7194 19.1351 24.1237 18.0183 22.9324C16.9014 21.7411 16.3802 20.1031 16.3802 18.0183C16.3802 17.1993 16.4547 16.3803 16.6036 15.5613C16.9014 13.8488 17.4971 12.4341 18.3161 11.1684C19.1351 9.90265 20.1775 8.93472 21.3688 8.33907C22.5601 7.66897 23.8258 7.37115 25.2405 7.37115C26.5807 7.29669 27.6975 7.59451 28.591 8.19016ZM23.4536 12.9553C22.6345 13.6999 22.1134 14.6678 21.89 16.008C21.8155 16.3803 21.8155 16.6781 21.8155 16.976C21.8155 17.9439 22.1134 18.7629 22.6345 19.2841C23.1557 19.8053 23.9748 20.1031 24.8682 20.1031C25.9851 20.1031 26.953 19.7308 27.772 18.9863C28.591 18.2417 29.1122 17.1993 29.3356 16.008C29.41 15.6358 29.41 15.3379 29.41 15.0401C29.41 14.0722 29.1122 13.2532 28.591 12.732C27.9954 12.2108 27.2508 11.913 26.3573 11.913C25.2405 11.8385 24.2726 12.2108 23.4536 12.9553Z" fill="white"/>
<path d="M44.599 2.01031L40.6528 24.5704H35.4409L39.3871 2.01031H44.599Z" fill="white"/>
<path d="M58.7457 9.08363C60.0114 10.2749 60.6815 11.8385 60.6815 13.8488C60.6815 14.2955 60.6071 14.8912 60.5326 15.5613C60.4582 16.0825 60.3093 16.5292 60.1603 16.976H48.3219C48.2474 17.3482 48.2474 17.6461 48.2474 17.795C48.2474 19.6564 49.1409 20.5498 50.9278 20.5498C51.6724 20.5498 52.3425 20.3265 52.9381 19.9542C53.5338 19.5819 53.9805 19.0607 54.2039 18.4651H59.7136C59.0435 20.3265 57.8522 21.8156 56.2142 23.0069C54.5761 24.1982 52.6403 24.7194 50.4066 24.7194C48.2474 24.7194 46.4605 24.1237 45.1947 22.858C43.929 21.6667 43.2589 19.9542 43.2589 17.795C43.2589 17.1249 43.3333 16.4548 43.4078 15.7102C43.7056 13.9977 44.3757 12.5086 45.2692 11.1684C46.2371 9.90264 47.4284 8.93471 48.843 8.26461C50.2577 7.59451 51.8213 7.22223 53.4593 7.22223C55.7674 7.29668 57.4799 7.89233 58.7457 9.08363ZM55.4696 13.8488C55.4696 13.0298 55.2463 12.4341 54.7251 11.9874C54.2039 11.6151 53.6082 11.3918 52.7892 11.3918C51.8213 11.3918 51.0023 11.6896 50.2577 12.2108C49.5131 12.8064 48.992 13.6254 48.7686 14.7423H55.3952C55.3952 14.4445 55.4696 14.1466 55.4696 13.8488Z" fill="white"/>
<path d="M88.0068 3.12714L84.284 24.496H79.0721L81.3802 11.0939L74.3813 24.496H69.914L67.6059 11.0939L65.2977 24.496H60.0858L63.8086 3.12714H70.1374L73.339 18.0183L81.6036 3.12714H88.0068Z" fill="#FF872C"/>
<path d="M99.7708 8.19016C100.664 8.78581 101.185 9.60482 101.483 10.5727L102.005 7.52006H107.216L104.238 24.496H99.0263L99.6219 21.4433C99.0263 22.4857 98.2073 23.2303 97.1649 23.8259C96.1225 24.4215 94.9312 24.7194 93.591 24.7194C91.7296 24.7194 90.3149 24.1237 89.1981 22.9324C88.0813 21.7411 87.5601 20.1031 87.5601 18.0183C87.5601 17.1993 87.6345 16.3803 87.7834 15.5613C88.0813 13.8488 88.6769 12.4341 89.4959 11.1684C90.3149 9.90265 91.3573 8.93472 92.5486 8.33907C93.7399 7.66897 95.0056 7.37115 96.4203 7.37115C97.7605 7.29669 98.8774 7.59451 99.7708 8.19016ZM94.5589 12.9553C93.7399 13.6999 93.2187 14.6678 92.9953 16.008C92.9209 16.3803 92.9209 16.6781 92.9209 16.976C92.9209 17.9439 93.2187 18.7629 93.7399 19.2841C94.2611 19.8053 95.0801 20.1031 95.9736 20.1031C97.0904 20.1031 98.0583 19.7308 98.8774 18.9863C99.6964 18.2417 100.218 17.1993 100.441 16.008C100.515 15.6358 100.515 15.3379 100.515 15.0401C100.515 14.0722 100.218 13.2532 99.6964 12.732C99.1007 12.2108 98.3562 11.913 97.4627 11.913C96.3459 11.8385 95.3779 12.2108 94.5589 12.9553Z" fill="#FF872C"/>
<path d="M114.737 7.52005L111.758 24.496H106.546L109.525 7.52005H114.737ZM110.865 0.893471C111.535 0.297824 112.428 0 113.471 0C114.29 0 114.96 0.223368 115.407 0.595647C115.853 1.04238 116.151 1.56357 116.151 2.23368C116.151 3.12715 115.779 3.87171 115.109 4.46735C114.439 5.063 113.545 5.36082 112.503 5.36082C111.684 5.36082 111.014 5.13746 110.567 4.76518C110.12 4.31844 109.822 3.79725 109.822 3.2016C109.822 2.30813 110.195 1.56357 110.865 0.893471Z" fill="#FF872C"/>
<path d="M127.915 8.93471C129.181 9.9771 129.851 11.3918 130 13.1787H124.863C124.863 12.4341 124.565 11.913 124.044 11.5407C123.522 11.1684 122.852 10.945 121.959 10.945C121.363 10.945 120.842 11.0939 120.395 11.3173C119.948 11.5407 119.874 11.913 119.874 12.3597C119.874 12.8064 120.172 13.1787 120.693 13.4765C121.214 13.7743 122.108 13.9977 123.225 14.2955C124.49 14.6678 125.458 14.9656 126.277 15.2635C127.022 15.5613 127.766 16.0825 128.288 16.6781C128.883 17.3482 129.107 18.1672 129.107 19.2096C129.107 19.6564 129.032 20.0286 128.958 20.4009C128.734 21.6667 127.99 22.7091 126.724 23.5281C125.533 24.3471 123.82 24.7194 121.81 24.7194C119.502 24.7194 117.64 24.1982 116.3 23.1558C114.885 22.1134 114.141 20.6987 114.066 18.8373H119.204C119.129 19.5819 119.427 20.1031 119.948 20.4754C120.544 20.8477 121.289 21.071 122.257 21.071C122.927 21.071 123.448 20.9221 123.82 20.6243C124.192 20.3265 124.341 19.9542 124.341 19.5075C124.341 18.9863 124.044 18.614 123.522 18.3906C123.001 18.1672 122.108 17.8694 120.991 17.4971C119.8 17.1993 118.832 16.9015 118.087 16.6037C117.343 16.3058 116.672 15.8591 116.077 15.189C115.481 14.5934 115.258 13.7743 115.258 12.732C115.258 12.5086 115.332 12.1363 115.407 11.6151C115.63 10.3494 116.3 9.30699 117.566 8.48798C118.832 7.66896 120.47 7.22223 122.554 7.22223C124.863 7.29668 126.65 7.81788 127.915 8.93471Z" fill="#FF872C"/>
</svg>
