<svg width="335" height="83" viewBox="0 0 335 83" fill="none" xmlns="http://www.w3.org/2000/svg">
<path d="M23.9 28.9L22.9 34.5H11.1L10 40.8H19.2L18.3 46.1H9.2L7 57.8H0L5.1 28.9H23.9Z" fill="#FF872C"/>
<path d="M38.4 35.9C39.6 36.7 40.3 37.8 40.7 39.1L41.4 35H48.4L44.4 57.8H37.4L38.2 53.7C37.4 55.1 36.3 56.1 34.9 56.9C33.5 57.7 31.9 58.1 30.1 58.1C27.6 58.1 25.7 57.3 24.2 55.7C22.7 54.1 22 51.9 22 49.1C22 48 22.1 46.9 22.3 45.8C22.7 43.5 23.5 41.6 24.6 39.9C25.7 38.2 27.1 36.9 28.7 36.1C30.3 35.2 32 34.8 33.9 34.8C35.7 34.7 37.2 35.1 38.4 35.9ZM31.5 42.3C30.4 43.3 29.7 44.6 29.4 46.4C29.3 46.9 29.3 47.3 29.3 47.7C29.3 49 29.7 50.1 30.4 50.8C31.1 51.5 32.2 51.9 33.4 51.9C34.9 51.9 36.2 51.4 37.3 50.4C38.4 49.4 39.1 48 39.4 46.4C39.5 45.9 39.5 45.5 39.5 45.1C39.5 43.8 39.1 42.7 38.4 42C37.6 41.3 36.6 40.9 35.4 40.9C33.9 40.9 32.6 41.4 31.5 42.3Z" fill="#FF872C"/>
<path d="M59.9 27.6L54.6 57.9H47.6L52.9 27.6H59.9V27.6Z" fill="#FF872C"/>
<path d="M78.9 37.1C80.6 38.7 81.5 40.8 81.5 43.5C81.5 44.1 81.4 44.9 81.3 45.8C81.2 46.5 81 47.1 80.8 47.7H64.9C64.8 48.2 64.8 48.6 64.8 48.8C64.8 51.3 66 52.5 68.4 52.5C69.4 52.5 70.3 52.2 71.1 51.7C71.9 51.2 72.5 50.5 72.8 49.7H80.2C79.3 52.2 77.7 54.2 75.5 55.8C73.3 57.4 70.7 58.1 67.7 58.1C64.8 58.1 62.4 57.3 60.7 55.6C59 54 58.1 51.7 58.1 48.8C58.1 47.9 58.2 47 58.3 46C58.7 43.7 59.6 41.7 60.8 39.9C62.1 38.2 63.7 36.9 65.6 36C67.5 35.1 69.6 34.6 71.8 34.6C74.9 34.7 77.2 35.5 78.9 37.1ZM74.5 43.5C74.5 42.4 74.2 41.6 73.5 41C72.8 40.5 72 40.2 70.9 40.2C69.6 40.2 68.5 40.6 67.5 41.3C66.5 42.1 65.8 43.2 65.5 44.7H74.4C74.4 44.3 74.5 43.9 74.5 43.5Z" fill="#FF872C"/>
<path d="M108.7 46.7H101.6L100.3 53.9H93.6L94.9 46.7H87.8L88.9 40.3H96L97.3 33.1H104L102.7 40.3H109.8L108.7 46.7Z" fill="#FF872C"/>
<path d="M131.8 34.2C131.3 33.6 130.6 33.3 129.5 33.3C127.9 33.3 126.7 34 125.8 35.5C124.9 37 124.2 39.2 123.7 42.2C124.4 41.1 125.3 40.2 126.5 39.6C127.7 39 129.1 38.6 130.6 38.6C132.9 38.6 134.7 39.2 136 40.5C137.3 41.8 138 43.6 138 45.9C138 46.7 137.9 47.6 137.8 48.5C137.3 51.4 136.1 53.7 134.1 55.5C132.1 57.3 129.6 58.1 126.5 58.1C120 58.1 116.8 54.7 116.8 47.9C116.8 46.4 117 44.7 117.3 42.7C118.2 37.6 119.7 33.8 121.8 31.4C123.9 29 126.8 27.8 130.6 27.8C133.5 27.8 135.7 28.5 137.1 30C138.5 31.5 139.1 33.4 139.1 35.8C139.1 36.3 139.1 36.7 139.1 36.9H132.6C132.6 35.7 132.3 34.8 131.8 34.2ZM124.2 51.2C124.8 51.8 125.7 52.1 126.9 52.1C128.3 52.1 129.4 51.7 130.3 50.9C131.2 50.1 131.6 48.9 131.6 47.4C131.6 46.3 131.3 45.5 130.7 45C130.1 44.4 129.3 44.2 128.3 44.2C127 44.2 125.8 44.6 124.8 45.4C123.8 46.2 123.3 47.4 123.3 48.9C123.3 49.8 123.6 50.6 124.2 51.2Z" fill="#FF872C"/>
<path d="M140.1 43.1C140.9 38.6 142.4 35 144.7 32.4C147 29.8 150.1 28.5 154.1 28.5C157.3 28.5 159.7 29.4 161.2 31.1C162.7 32.9 163.4 35.3 163.4 38.4C163.4 39.8 163.2 41.3 163 43.1C162.2 47.6 160.7 51.2 158.4 53.9C156.1 56.5 153 57.9 149 57.9C145.8 57.9 143.4 57 141.9 55.2C140.4 53.4 139.7 51 139.7 47.8C139.7 46.4 139.8 44.8 140.1 43.1ZM156.1 43.1C156.4 41.6 156.5 40.3 156.5 39.3C156.5 38 156.2 36.9 155.7 36.2C155.2 35.5 154.2 35.1 152.9 35.1C151.1 35.1 149.7 35.8 148.9 37.2C148.1 38.6 147.4 40.6 146.9 43.1C146.6 44.7 146.5 45.9 146.5 46.9C146.5 48.3 146.8 49.3 147.3 50.1C147.8 50.9 148.8 51.2 150.1 51.2C151.9 51.2 153.3 50.5 154.1 49.1C155 47.7 155.7 45.7 156.1 43.1Z" fill="#FF872C"/>
<path d="M208.9 36.7C210.2 38 210.9 39.8 210.9 42.1C210.9 43 210.8 43.8 210.7 44.6L208.4 57.8H201.4L203.6 45.4C203.7 45.2 203.7 44.8 203.7 44.3C203.7 43.2 203.4 42.3 202.7 41.7C202.1 41.1 201.2 40.8 200 40.8C198.6 40.8 197.5 41.2 196.5 42C195.5 42.8 195 44 194.7 45.5V45.6L192.5 57.7H185.5L187.7 45.3C187.8 44.9 187.8 44.5 187.8 44.2C187.8 43.1 187.5 42.3 186.8 41.7C186.1 41.1 185.3 40.8 184.1 40.8C182.7 40.8 181.6 41.2 180.6 42.1C179.6 43 179 44.2 178.7 45.7L176.6 57.8H169.6L173.6 35H180.6L179.9 38.9C180.7 37.6 181.8 36.6 183.2 35.9C184.6 35.2 186.1 34.8 187.7 34.8C189.4 34.8 190.9 35.2 192.1 36C193.3 36.8 194.1 38 194.6 39.5C195.6 38.1 196.9 37 198.4 36.1C199.9 35.2 201.5 34.8 203.2 34.8C205.7 34.8 207.6 35.4 208.9 36.7Z" fill="#FF872C"/>
<path d="M222.3 35L218.3 57.8H211.3L215.3 35H222.3ZM217.1 26.2C218 25.4 219.2 25 220.6 25C221.7 25 222.6 25.3 223.2 25.8C223.8 26.4 224.2 27.1 224.2 28C224.2 29.2 223.7 30.2 222.8 31C221.9 31.8 220.7 32.2 219.3 32.2C218.2 32.2 217.3 31.9 216.7 31.4C216.1 30.8 215.7 30.1 215.7 29.3C215.7 28 216.2 27 217.1 26.2Z" fill="#FF872C"/>
<path d="M245.2 36.7C246.4 38 247.1 39.8 247.1 42.1C247.1 42.9 247 43.7 246.9 44.6L244.5 57.8H237.5L239.7 45.4C239.8 44.9 239.8 44.5 239.8 44.1C239.8 43 239.5 42.1 238.8 41.4C238.1 40.7 237.2 40.5 236.1 40.5C234.7 40.5 233.5 40.9 232.5 41.8C231.5 42.7 230.9 44 230.6 45.6L228.5 57.7H221.5L225.5 34.9H232.5L231.8 39C232.7 37.7 233.9 36.6 235.3 35.8C236.7 35 238.3 34.6 240.1 34.6C242.2 34.8 243.9 35.4 245.2 36.7Z" fill="#FF872C"/>
<path d="M273.9 35L269.9 57.8H262.9L263.6 53.6C262.7 55 261.6 56 260.1 56.8C258.7 57.6 257.1 58 255.3 58C253.1 58 251.4 57.4 250.1 56.1C248.9 54.8 248.2 53 248.2 50.7C248.2 49.9 248.3 49.1 248.4 48.2L250.7 35H257.7L255.5 47.4C255.4 47.8 255.4 48.2 255.4 48.6C255.4 49.8 255.7 50.7 256.4 51.3C257.1 51.9 258 52.3 259.1 52.3C260.5 52.3 261.7 51.9 262.7 51C263.7 50.1 264.3 48.8 264.6 47.2V47.4L266.8 35.1H273.9V35Z" fill="#FF872C"/>
<path d="M282.3 49.4C282.2 49.8 282.2 50 282.2 50.2C282.2 50.8 282.4 51.2 282.7 51.4C283 51.7 283.6 51.8 284.3 51.8H286.5L285.4 57.8H282.2C279.9 57.8 278.1 57.3 276.9 56.4C275.7 55.5 275 53.9 275 51.7C275 50.8 275.1 50 275.2 49.3L276.7 40.9H273.7L274.8 35H277.8L278.8 29.4H285.8L284.8 35H289.3L288.3 40.9H283.7L282.3 49.4Z" fill="#FF872C"/>
<path d="M308.1 35.9C309.6 36.7 310.8 37.8 311.7 39.2C312.6 40.7 313 42.4 313 44.4C313 45.2 312.9 46.1 312.8 47.1C312.4 49.4 311.5 51.3 310.2 53C308.9 54.7 307.3 55.9 305.4 56.8C303.5 57.7 301.4 58.1 299.2 58.1C297.2 58.1 295.4 57.7 293.8 56.9C292.2 56.1 291 55 290.2 53.6C289.3 52.2 288.9 50.4 288.9 48.4C288.9 47.6 289 46.7 289.1 45.7C289.5 43.4 290.4 41.5 291.7 39.8C293 38.1 294.6 36.8 296.6 36C298.5 35.1 300.6 34.7 302.8 34.7C304.8 34.7 306.6 35.1 308.1 35.9ZM298.3 42.2C297.2 43.2 296.5 44.6 296.2 46.4C296.1 47.1 296 47.6 296 47.9C296 49.2 296.4 50.3 297.1 50.9C297.8 51.6 298.8 51.9 299.9 51.9C301.2 51.9 302.4 51.4 303.5 50.5C304.6 49.5 305.3 48.2 305.6 46.3C305.7 45.8 305.7 45.3 305.7 44.8C305.7 43.5 305.3 42.4 304.6 41.7C303.9 41 303 40.6 301.8 40.6C300.6 40.8 299.4 41.3 298.3 42.2Z" fill="#FF872C"/>
<path d="M331.3 36.9C333 38.3 333.9 40.2 334.1 42.6H327.2C327.2 41.6 326.8 40.9 326.1 40.4C325.4 39.9 324.5 39.6 323.3 39.6C322.5 39.6 321.8 39.8 321.2 40.1C320.6 40.4 320.4 40.9 320.4 41.5C320.4 42.1 320.8 42.6 321.5 43C322.2 43.4 323.4 43.7 324.9 44.1C326.6 44.6 327.9 45 329 45.4C330 45.8 331 46.5 331.7 47.3C332.5 48.2 332.8 49.3 332.8 50.7C332.8 51.3 332.7 51.8 332.6 52.3C332.3 54 331.3 55.4 329.6 56.5C328 57.6 325.7 58.1 323 58.1C319.9 58.1 317.4 57.4 315.6 56C313.7 54.6 312.7 52.7 312.6 50.2H319.5C319.4 51.2 319.8 51.9 320.5 52.4C321.3 52.9 322.3 53.2 323.6 53.2C324.5 53.2 325.2 53 325.7 52.6C326.2 52.2 326.4 51.7 326.4 51.1C326.4 50.4 326 49.9 325.3 49.6C324.6 49.3 323.4 48.9 321.9 48.4C320.3 48 319 47.6 318 47.2C317 46.8 316.1 46.2 315.3 45.3C314.5 44.5 314.2 43.4 314.2 42C314.2 41.7 314.3 41.2 314.4 40.5C314.7 38.8 315.6 37.4 317.3 36.3C319 35.2 321.2 34.6 324 34.6C327.2 34.7 329.6 35.4 331.3 36.9Z" fill="#FF872C"/>
<path d="M190.3 14.5C186.4 12.4 182.3 11 178.2 10.2C174.1 9.39999 169.8 9.4 165.7 9.9C165.2 9.9 164.7 10.1 164.1 10.2C163.6 10.3 163.1 10.4 162.6 10.5C161.6 10.7 160.6 11 159.5 11.3C157.5 12 155.5 12.7 153.5 13.7C149.5 15.6 145.8 18.3 142 21.5C142.6 19.1 143.7 16.8 145.1 14.6C146.5 12.4 148.2 10.5 150.2 8.69999C152.2 6.99999 154.4 5.5 156.7 4.3L158.5 3.5C159.1 3.2 159.7 3 160.4 2.8C161.7 2.3 163 1.99999 164.3 1.69999C169.5 0.599995 175.1 0.699995 180.2 2.19999C185.4 3.69999 190.1 6.49999 193.7 10.2L190.3 14.5Z" fill="#FF872C"/>
<path d="M196.2 4.89999L200.3 21.6L183.7 16.8L196.2 4.89999Z" fill="#FF872C"/>
<path d="M87.6 68.5C91.5 70.6 95.6 72 99.7 72.8C103.8 73.6 108.1 73.6 112.2 73.1C112.7 73.1 113.2 72.9 113.8 72.8C114.3 72.7 114.8 72.6 115.3 72.5C116.3 72.3 117.3 72 118.4 71.7C120.4 71 122.4 70.3 124.4 69.3C128.4 67.4 132.1 64.7 135.9 61.5C135.3 63.9 134.2 66.2 132.8 68.4C131.4 70.6 129.7 72.5 127.7 74.3C125.7 76 123.5 77.5 121.2 78.7L119.4 79.5C118.8 79.8 118.2 80 117.5 80.2C116.2 80.7 114.9 81 113.6 81.3C108.4 82.4 102.8 82.3 97.7 80.8C92.5 79.3 87.8 76.5 84.2 72.8L87.6 68.5Z" fill="#FF872C"/>
<path d="M81.7 78.2L77.6 61.5L94.2 66.3L81.7 78.2Z" fill="#FF872C"/>
</svg>
