<svg width="184" height="46" viewBox="0 0 184 46" fill="none" xmlns="http://www.w3.org/2000/svg">
<path d="M13.1632 15.5886L12.6124 18.7132H6.11346L5.50762 22.2284H10.5746L10.0789 25.1857H5.01193L3.85533 31.7139H0L2.80888 15.5886H13.1632Z" fill="#FF872C"/>
<path d="M21.1492 19.4944C21.8101 19.9408 22.1956 20.5546 22.4159 21.2799L22.8015 18.9922H26.6568L24.4538 31.714H20.5984L21.039 29.4263C20.5984 30.2075 19.9926 30.7654 19.2215 31.2118C18.4505 31.6582 17.5692 31.8814 16.5779 31.8814C15.201 31.8814 14.1545 31.435 13.3284 30.5422C12.5022 29.6495 12.1167 28.422 12.1167 26.8596C12.1167 26.2459 12.1718 25.6321 12.2819 25.0183C12.5022 23.735 12.9428 22.6749 13.5487 21.7263C14.1545 20.7778 14.9256 20.0524 15.8068 19.606C16.688 19.1038 17.6243 18.8806 18.6708 18.8806C19.6621 18.8249 20.4883 19.048 21.1492 19.4944ZM17.3489 23.0654C16.7431 23.6234 16.3576 24.3488 16.1923 25.3531C16.1373 25.6321 16.1373 25.8553 16.1373 26.0785C16.1373 26.8038 16.3576 27.4176 16.7431 27.8082C17.1286 28.1988 17.7345 28.422 18.3954 28.422C19.2215 28.422 19.9375 28.143 20.5434 27.585C21.1492 27.027 21.5347 26.2459 21.7 25.3531C21.755 25.0741 21.755 24.8509 21.755 24.6278C21.755 23.9024 21.5347 23.2886 21.1492 22.898C20.7086 22.5075 20.1578 22.2843 19.4969 22.2843C18.6708 22.2843 17.9548 22.5075 17.3489 23.0654Z" fill="#FF872C"/>
<path d="M32.9906 14.8633L30.0716 31.7698H26.2162L29.1353 14.8633H32.9906Z" fill="#FF872C"/>
<path d="M43.4551 20.164C44.3914 21.0567 44.8871 22.2285 44.8871 23.735C44.8871 24.0698 44.832 24.5161 44.7769 25.0183C44.7219 25.4089 44.6117 25.7437 44.5016 26.0785H35.7444C35.6894 26.3575 35.6894 26.5806 35.6894 26.6922C35.6894 28.0872 36.3503 28.7567 37.6721 28.7567C38.2229 28.7567 38.7186 28.5893 39.1592 28.3103C39.5998 28.0314 39.9302 27.6408 40.0955 27.1944H44.1711C43.6754 28.5893 42.7942 29.7053 41.5825 30.598C40.3708 31.4908 38.9389 31.8814 37.2866 31.8814C35.6894 31.8814 34.3675 31.435 33.4312 30.4864C32.495 29.5937 31.9993 28.3103 31.9993 26.6922C31.9993 26.1901 32.0543 25.6879 32.1094 25.1299C32.3297 23.8466 32.8254 22.7306 33.4863 21.7263C34.2023 20.7777 35.0835 20.0524 36.13 19.5502C37.1764 19.048 38.333 18.769 39.5447 18.769C41.2521 18.8248 42.5188 19.2712 43.4551 20.164ZM41.0318 23.735C41.0318 23.1212 40.8665 22.6748 40.481 22.3401C40.0955 22.0611 39.6549 21.8937 39.049 21.8937C38.333 21.8937 37.7272 22.1169 37.1764 22.5074C36.6257 22.9538 36.2401 23.5676 36.0749 24.4046H40.9767C40.9767 24.1814 41.0318 23.9582 41.0318 23.735Z" fill="#FF872C"/>
<path d="M59.8678 25.5205H55.9574L55.2415 29.5379H51.5513L52.2673 25.5205H48.3569L48.9628 21.9495H52.8732L53.5892 17.9321H57.2793L56.5633 21.9495H60.4737L59.8678 25.5205Z" fill="#FF872C"/>
<path d="M75.0688 15.9234C75.895 16.6487 76.2805 17.5415 76.2805 18.6574C76.2805 18.8806 76.2254 19.1596 76.1704 19.5502C76.0051 20.4987 75.6196 21.3357 74.9587 21.8936C74.2978 22.5074 73.5818 22.898 72.7556 23.0654V23.177C73.5267 23.456 74.1325 23.8465 74.5732 24.4045C75.0138 24.9625 75.2341 25.6878 75.2341 26.5806C75.2341 26.9712 75.179 27.306 75.1239 27.6407C74.9036 28.9241 74.2978 29.9284 73.2513 30.6538C72.2049 31.4349 70.8831 31.7697 69.2308 31.7697C67.4683 31.7697 66.1465 31.3792 65.1551 30.5422C64.2188 29.761 63.7231 28.5335 63.7231 26.9712C63.7231 26.8038 63.7231 26.5806 63.7782 26.19H67.5234C67.4683 26.4132 67.4683 26.5806 67.4683 26.6922C67.4683 27.2502 67.6336 27.6965 67.964 28.0313C68.2945 28.3661 68.7902 28.5335 69.4511 28.5335C70.0018 28.5335 70.4424 28.3661 70.7729 28.0871C71.1034 27.8081 71.3237 27.4176 71.4338 26.9712C71.4889 26.748 71.4889 26.5806 71.4889 26.469C71.4889 25.2973 70.6627 24.6835 68.9554 24.6835H68.2394L68.7902 21.5031H69.5061C71.2135 21.5589 72.1498 20.9451 72.3701 19.7176C72.3701 19.606 72.3701 19.4944 72.3701 19.327C72.3701 18.8806 72.26 18.5458 71.9846 18.3226C71.7643 18.0994 71.3787 17.9878 70.9381 17.9878C70.3874 17.9878 69.9468 18.1552 69.5612 18.5458C69.1757 18.9364 68.9003 19.4386 68.7902 20.0523H65.045C65.3754 18.3226 66.0914 17.0393 67.248 16.1465C68.4046 15.2538 69.8366 14.7516 71.599 14.7516C73.1412 14.8632 74.2978 15.2538 75.0688 15.9234Z" fill="#FF872C"/>
<path d="M76.4457 23.5118C76.8863 21.0009 77.7124 18.9922 78.9792 17.5415C80.2459 16.0907 81.9533 15.3654 84.1564 15.3654C85.9188 15.3654 87.2406 15.8676 88.0668 16.8161C88.8929 17.8205 89.2784 19.1596 89.2784 20.8893C89.2784 21.6705 89.1683 22.5074 89.0581 23.5118C88.6175 26.0226 87.7914 28.0313 86.5246 29.5379C85.2579 30.9886 83.5505 31.7697 81.3475 31.7697C79.585 31.7697 78.2632 31.2676 77.4371 30.2632C76.6109 29.2589 76.2254 27.9197 76.2254 26.1342C76.1703 25.3531 76.2805 24.4603 76.4457 23.5118ZM85.2579 23.5118C85.4231 22.6748 85.4782 21.9494 85.4782 21.3915C85.4782 20.6661 85.313 20.0523 85.0376 19.6618C84.7622 19.2712 84.2114 19.048 83.4954 19.048C82.5041 19.048 81.733 19.4386 81.2924 20.2197C80.8518 21.0009 80.4663 22.1168 80.1909 23.5118C80.0256 24.4045 79.9706 25.0741 79.9706 25.6321C79.9706 26.4132 80.1358 26.9712 80.4112 27.4176C80.6866 27.8639 81.2373 28.0313 81.9533 28.0313C82.9447 28.0313 83.7158 27.6408 84.1564 26.8596C84.652 26.0226 84.9825 24.9625 85.2579 23.5118Z" fill="#FF872C"/>
<path d="M114.283 19.9408C114.999 20.6662 115.385 21.6705 115.385 22.9538C115.385 23.456 115.329 23.9024 115.274 24.3488L114.008 31.714H110.152L111.364 24.7951C111.419 24.6835 111.419 24.4604 111.419 24.1814C111.419 23.5676 111.254 23.0654 110.868 22.7306C110.538 22.3959 110.042 22.2285 109.381 22.2285C108.61 22.2285 108.004 22.4517 107.454 22.898C106.903 23.3444 106.627 24.014 106.462 24.8509V24.9067L105.251 31.6582H101.395L102.607 24.7393C102.662 24.5162 102.662 24.293 102.662 24.1256C102.662 23.5118 102.497 23.0654 102.111 22.7306C101.726 22.3959 101.285 22.2285 100.624 22.2285C99.8531 22.2285 99.2473 22.4517 98.6965 22.9538C98.1457 23.456 97.8153 24.1256 97.6501 24.9625L96.4935 31.714H92.6381L94.8412 18.9922H98.6965L98.311 21.1683C98.7516 20.443 99.3574 19.885 100.128 19.4944C100.9 19.1038 101.726 18.8806 102.607 18.8806C103.543 18.8806 104.369 19.1038 105.03 19.5502C105.691 19.9966 106.132 20.6662 106.407 21.5031C106.958 20.722 107.674 20.1082 108.5 19.606C109.326 19.1038 110.207 18.8806 111.144 18.8806C112.576 18.8806 113.567 19.2154 114.283 19.9408Z" fill="#FF872C"/>
<path d="M121.718 18.9922L119.515 31.714H115.66L117.863 18.9922H121.718ZM118.854 14.0821C119.35 13.6357 120.011 13.4125 120.782 13.4125C121.388 13.4125 121.884 13.5799 122.214 13.8589C122.544 14.1937 122.765 14.5842 122.765 15.0864C122.765 15.756 122.489 16.314 121.994 16.7603C121.498 17.2067 120.837 17.4299 120.066 17.4299C119.46 17.4299 118.964 17.2625 118.634 16.9835C118.304 16.6487 118.083 16.2582 118.083 15.8118C118.083 15.0864 118.304 14.5284 118.854 14.0821Z" fill="#FF872C"/>
<path d="M134.276 19.9408C134.937 20.6661 135.322 21.6705 135.322 22.9538C135.322 23.4002 135.267 23.8466 135.212 24.3488L133.89 31.714H130.035L131.247 24.7951C131.302 24.5161 131.302 24.293 131.302 24.0698C131.302 23.456 131.136 22.9538 130.751 22.5632C130.365 22.1727 129.87 22.0611 129.264 22.0611C128.493 22.0611 127.832 22.2843 127.281 22.7864C126.73 23.2886 126.4 24.014 126.235 24.9067L125.078 31.6582H121.223L123.426 18.9364H127.281L126.895 21.2241C127.391 20.4988 128.052 19.885 128.823 19.4386C129.594 18.9922 130.475 18.769 131.467 18.769C132.679 18.8806 133.615 19.2154 134.276 19.9408Z" fill="#FF872C"/>
<path d="M150.082 18.9922L147.879 31.714H144.024L144.41 29.3705C143.914 30.1516 143.308 30.7096 142.482 31.156C141.711 31.6024 140.83 31.8256 139.838 31.8256C138.627 31.8256 137.69 31.4908 136.974 30.7654C136.313 30.04 135.928 29.0357 135.928 27.7524C135.928 27.306 135.983 26.8596 136.038 26.3574L137.305 18.9922H141.16L139.948 25.9111C139.893 26.1342 139.893 26.3574 139.893 26.5806C139.893 27.2502 140.059 27.7524 140.444 28.0871C140.83 28.4219 141.325 28.6451 141.931 28.6451C142.702 28.6451 143.363 28.4219 143.914 27.9198C144.465 27.4176 144.795 26.6922 144.96 25.7995V25.9111L146.172 19.048H150.082V18.9922Z" fill="#FF872C"/>
<path d="M154.709 27.027C154.654 27.2502 154.654 27.3618 154.654 27.4733C154.654 27.8081 154.764 28.0313 154.929 28.1429C155.094 28.3103 155.425 28.3661 155.81 28.3661H157.022L156.416 31.7139H154.654C153.387 31.7139 152.396 31.4349 151.735 30.9328C151.074 30.4306 150.688 29.5378 150.688 28.3103C150.688 27.8081 150.743 27.3618 150.798 26.9712L151.625 22.2842H149.972L150.578 18.9922H152.23L152.781 15.8676H156.637L156.086 18.9922H158.564L158.013 22.2842H155.48L154.709 27.027Z" fill="#FF872C"/>
<path d="M168.974 19.4944C169.8 19.9408 170.461 20.5546 170.956 21.3357C171.452 22.1727 171.672 23.1212 171.672 24.2372C171.672 24.6836 171.617 25.1857 171.562 25.7437C171.342 27.027 170.846 28.0872 170.13 29.0357C169.414 29.9843 168.533 30.6538 167.487 31.156C166.44 31.6582 165.284 31.8814 164.072 31.8814C162.97 31.8814 161.979 31.6582 161.098 31.2118C160.217 30.7654 159.556 30.1517 159.115 29.3705C158.619 28.5893 158.399 27.585 158.399 26.4691C158.399 26.0227 158.454 25.5205 158.509 24.9625C158.73 23.6792 159.225 22.6191 159.941 21.6705C160.657 20.722 161.538 19.9966 162.64 19.5502C163.686 19.048 164.843 18.8249 166.055 18.8249C167.101 18.8249 168.092 19.048 168.974 19.4944ZM163.521 23.0096C162.915 23.5676 162.53 24.3488 162.365 25.3531C162.309 25.7437 162.254 26.0227 162.254 26.1901C162.254 26.9154 162.475 27.5292 162.86 27.864C163.246 28.2546 163.797 28.422 164.402 28.422C165.118 28.422 165.779 28.143 166.385 27.6408C166.991 27.0828 167.377 26.3575 167.542 25.2973C167.597 25.0183 167.597 24.7394 167.597 24.4604C167.597 23.735 167.377 23.1212 166.991 22.7307C166.605 22.3401 166.11 22.1169 165.449 22.1169C164.788 22.2285 164.127 22.4517 163.521 23.0096Z" fill="#FF872C"/>
<path d="M181.751 20.0524C182.688 20.8335 183.183 21.8937 183.293 23.2328H179.493C179.493 22.6748 179.273 22.2843 178.887 22.0053C178.502 21.7263 178.006 21.5589 177.345 21.5589C176.905 21.5589 176.519 21.6705 176.189 21.8379C175.858 22.0053 175.748 22.2843 175.748 22.619C175.748 22.9538 175.968 23.2328 176.354 23.456C176.739 23.6792 177.4 23.8466 178.226 24.0698C179.163 24.3488 179.879 24.5719 180.485 24.7951C181.035 25.0183 181.586 25.4089 181.972 25.8553C182.412 26.3574 182.577 26.9712 182.577 27.7524C182.577 28.0872 182.522 28.3661 182.467 28.6451C182.302 29.5937 181.751 30.3748 180.815 30.9886C179.934 31.6024 178.667 31.8814 177.18 31.8814C175.473 31.8814 174.096 31.4908 173.104 30.7096C172.058 29.9285 171.507 28.8683 171.452 27.4734H175.252C175.197 28.0314 175.418 28.4219 175.803 28.7009C176.244 28.9799 176.794 29.1473 177.51 29.1473C178.006 29.1473 178.392 29.0357 178.667 28.8125C178.942 28.5893 179.053 28.3103 179.053 27.9756C179.053 27.585 178.832 27.306 178.447 27.1386C178.061 26.9712 177.4 26.748 176.574 26.469C175.693 26.2459 174.977 26.0227 174.426 25.7995C173.875 25.5763 173.38 25.2415 172.939 24.7393C172.498 24.293 172.333 23.6792 172.333 22.898C172.333 22.7306 172.388 22.4517 172.443 22.0611C172.609 21.1125 173.104 20.3314 174.041 19.7176C174.977 19.1038 176.189 18.769 177.731 18.769C179.438 18.8248 180.815 19.2154 181.751 20.0524Z" fill="#FF872C"/>
<path d="M104.81 7.55382C102.662 6.38208 100.404 5.60092 98.1457 5.15455C95.8876 4.70817 93.5193 4.70817 91.2612 4.98716C90.9858 4.98716 90.7104 5.09875 90.38 5.15455C90.1046 5.21034 89.8292 5.26614 89.5538 5.32194C89.0031 5.43353 88.4523 5.60092 87.8465 5.76831C86.7449 6.15889 85.6434 6.54947 84.5419 7.10745C82.3388 8.16759 80.301 9.67411 78.2081 11.4596C78.5386 10.1205 79.1444 8.83716 79.9155 7.60962C80.6866 6.38208 81.6229 5.32194 82.7244 4.31759C83.8259 3.36904 85.0376 2.53208 86.3043 1.86252L87.2957 1.41614C87.6262 1.24875 87.9566 1.13716 88.3421 1.02556C89.0581 0.746576 89.7741 0.579185 90.4901 0.411793C93.3541 -0.201975 96.4383 -0.146178 99.2472 0.690779C102.111 1.52774 104.7 3.09005 106.683 5.15455L104.81 7.55382Z" fill="#FF872C"/>
<path d="M108.059 2.14151L110.318 11.5154L101.175 8.83716L108.059 2.14151Z" fill="#FF872C"/>
<path d="M48.2467 37.6843C50.3947 38.856 52.6528 39.6372 54.911 40.0835C57.1691 40.5299 59.5374 40.5299 61.7955 40.2509C62.0709 40.2509 62.3462 40.1393 62.6767 40.0835C62.9521 40.0277 63.2275 39.9719 63.5028 39.9162C64.0536 39.8046 64.6044 39.6372 65.2102 39.4698C66.3117 39.0792 67.4132 38.6886 68.5148 38.1306C70.7178 37.0705 72.7556 35.564 74.8485 33.7785C74.5181 35.1176 73.9122 36.4009 73.1412 37.6285C72.3701 38.856 71.4338 39.9162 70.3323 40.9205C69.2308 41.8691 68.0191 42.706 66.7523 43.3756L65.761 43.8219C65.4305 43.9893 65.1 44.1009 64.7145 44.2125C63.9985 44.4915 63.2825 44.6589 62.5665 44.8263C59.7026 45.4401 56.6183 45.3843 53.8094 44.5473C50.9455 43.7104 48.3569 42.148 46.3741 40.0835L48.2467 37.6843Z" fill="#FF872C"/>
<path d="M44.9972 43.0966L42.7391 33.7785L51.8817 36.4567L44.9972 43.0966Z" fill="#FF872C"/>
</svg>
