<svg width="346" height="82" viewBox="0 0 346 82" fill="none" xmlns="http://www.w3.org/2000/svg">
<path d="M23.9 27.9L22.9 33.5H11.1L10 39.8H19.2L18.3 45.1H9.1L7 56.8H0L5.1 27.9H23.9Z" fill="#FF872C"/>
<path d="M38.4 34.9C39.6 35.7 40.3 36.8 40.7 38.1L41.4 34H48.4L44.4 56.8H37.4L38.2 52.7C37.4 54.1 36.3 55.1 34.9 55.9C33.5 56.7 31.9 57.1 30.1 57.1C27.6 57.1 25.7 56.3 24.2 54.7C22.7 53.1 22 50.9 22 48.1C22 47 22.1 45.9 22.3 44.8C22.7 42.5 23.5 40.6 24.6 38.9C25.7 37.2 27.1 35.9 28.7 35.1C30.3 34.2 32 33.8 33.9 33.8C35.7 33.7 37.2 34.1 38.4 34.9ZM31.5 41.3C30.4 42.3 29.7 43.6 29.4 45.4C29.3 45.9 29.3 46.3 29.3 46.7C29.3 48 29.7 49.1 30.4 49.8C31.1 50.5 32.2 50.9 33.4 50.9C34.9 50.9 36.2 50.4 37.3 49.4C38.4 48.4 39.1 47 39.4 45.4C39.5 44.9 39.5 44.5 39.5 44.1C39.5 42.8 39.1 41.7 38.4 41C37.6 40.3 36.6 39.9 35.4 39.9C33.9 39.9 32.6 40.4 31.5 41.3Z" fill="#FF872C"/>
<path d="M59.9 26.6L54.6 56.9H47.6L52.9 26.6H59.9Z" fill="#FF872C"/>
<path d="M78.9 36.1C80.6 37.7 81.5 39.8 81.5 42.5C81.5 43.1 81.4 43.9 81.3 44.8C81.2 45.5 81 46.1 80.8 46.7H64.9C64.8 47.2 64.8 47.6 64.8 47.8C64.8 50.3 66 51.5 68.4 51.5C69.4 51.5 70.3 51.2 71.1 50.7C71.9 50.2 72.5 49.5 72.8 48.7H80.2C79.3 51.2 77.7 53.2 75.5 54.8C73.3 56.4 70.7 57.1 67.7 57.1C64.8 57.1 62.4 56.3 60.7 54.6C59 53 58.1 50.7 58.1 47.8C58.1 46.9 58.2 46 58.3 45C58.7 42.7 59.6 40.7 60.8 38.9C62.1 37.2 63.7 35.9 65.6 35C67.5 34.1 69.6 33.6 71.8 33.6C74.9 33.7 77.2 34.5 78.9 36.1ZM74.5 42.5C74.5 41.4 74.2 40.6 73.5 40C72.8 39.5 72 39.2 70.9 39.2C69.6 39.2 68.5 39.6 67.5 40.3C66.5 41.1 65.8 42.2 65.5 43.7H74.4C74.4 43.3 74.5 42.9 74.5 42.5Z" fill="#FF872C"/>
<path d="M108.7 45.8H101.6L100.3 53H93.6L94.9 45.8H87.8L88.9 39.4H96L97.3 32.2H104L102.7 39.4H109.8L108.7 45.8Z" fill="#FF872C"/>
<path d="M117.1 34.5L118.2 28H129.9L124.8 56.9H117.4L121.4 34.5H117.1Z" fill="#FF872C"/>
<path d="M139 43.4C141.8 40.9 143.4 38.7 143.8 36.7C143.9 36.3 143.9 35.9 143.9 35.6C143.9 34 143.1 33.1 141.4 33.1C140.3 33.1 139.5 33.5 138.8 34.2C138.1 35 137.7 36.1 137.4 37.8H130.6C131 35.4 131.8 33.4 133 31.8C134.2 30.2 135.6 29.1 137.3 28.3C139 27.6 140.8 27.2 142.6 27.2C145.5 27.2 147.6 27.8 149.1 29.1C150.5 30.4 151.2 32.1 151.2 34.3C151.2 34.9 151.1 35.5 151 36.3C150.5 39 149 41.6 146.4 44.2C143.8 46.7 140.8 49 137.4 50.8H148.8L147.8 56.4H127.2L128.1 51.2C132.6 48.5 136.2 45.9 139 43.4Z" fill="#FF872C"/>
<path d="M151.3 42.1C152.1 37.6 153.6 34 155.9 31.4C158.2 28.8 161.3 27.5 165.3 27.5C168.5 27.5 170.9 28.4 172.4 30.1C173.9 31.9 174.6 34.3 174.6 37.4C174.6 38.8 174.4 40.3 174.2 42.1C173.4 46.6 171.9 50.2 169.6 52.9C167.3 55.5 164.2 56.9 160.2 56.9C157 56.9 154.6 56 153.1 54.2C151.6 52.4 150.9 50 150.9 46.8C150.8 45.4 151 43.8 151.3 42.1ZM167.3 42.1C167.6 40.6 167.7 39.3 167.7 38.3C167.7 37 167.4 35.9 166.9 35.2C166.4 34.5 165.4 34.1 164.1 34.1C162.3 34.1 160.9 34.8 160.1 36.2C159.3 37.6 158.6 39.6 158.1 42.1C157.8 43.7 157.7 44.9 157.7 45.9C157.7 47.3 158 48.3 158.5 49.1C159 49.9 160 50.2 161.3 50.2C163.1 50.2 164.5 49.5 165.3 48.1C166.2 46.7 166.8 44.7 167.3 42.1Z" fill="#FF872C"/>
<path d="M220 35.7C221.3 37 222 38.8 222 41.1C222 42 221.9 42.8 221.8 43.6L219.5 56.8H212.5L214.7 44.4C214.8 44.2 214.8 43.8 214.8 43.3C214.8 42.2 214.5 41.3 213.8 40.7C213.2 40.1 212.3 39.8 211.1 39.8C209.7 39.8 208.6 40.2 207.6 41C206.6 41.8 206.1 43 205.8 44.5V44.6L203.6 56.7H196.6L198.8 44.3C198.9 43.9 198.9 43.5 198.9 43.2C198.9 42.1 198.6 41.3 197.9 40.7C197.2 40.1 196.4 39.8 195.2 39.8C193.8 39.8 192.7 40.2 191.7 41.1C190.7 42 190.1 43.2 189.8 44.7L187.7 56.8H180.7L184.7 34H191.7L191 37.9C191.8 36.6 192.9 35.6 194.3 34.9C195.7 34.2 197.2 33.8 198.8 33.8C200.5 33.8 202 34.2 203.2 35C204.4 35.8 205.2 37 205.7 38.5C206.7 37.1 208 36 209.5 35.1C211 34.2 212.6 33.8 214.3 33.8C216.9 33.8 218.7 34.4 220 35.7Z" fill="#FF872C"/>
<path d="M233.5 34L229.5 56.8H222.5L226.5 34H233.5ZM228.3 25.2C229.2 24.4 230.4 24 231.8 24C232.9 24 233.8 24.3 234.4 24.8C235 25.4 235.4 26.1 235.4 27C235.4 28.2 234.9 29.2 234 30C233.1 30.8 231.9 31.2 230.5 31.2C229.4 31.2 228.5 30.9 227.9 30.4C227.3 29.8 226.9 29.1 226.9 28.3C226.9 27 227.4 26 228.3 25.2Z" fill="#FF872C"/>
<path d="M256.3 35.7C257.5 37 258.2 38.8 258.2 41.1C258.2 41.9 258.1 42.7 258 43.6L255.6 56.8H248.6L250.8 44.4C250.9 43.9 250.9 43.5 250.9 43.1C250.9 42 250.6 41.1 249.9 40.4C249.2 39.7 248.3 39.5 247.2 39.5C245.8 39.5 244.6 39.9 243.6 40.8C242.6 41.7 242 43 241.7 44.6L239.6 56.7H232.6L236.6 33.9H243.6L242.9 38C243.8 36.7 245 35.6 246.4 34.8C247.8 34 249.4 33.6 251.2 33.6C253.4 33.8 255.1 34.4 256.3 35.7Z" fill="#FF872C"/>
<path d="M285 34L281 56.8H274L274.7 52.6C273.8 54 272.7 55 271.2 55.8C269.8 56.6 268.2 57 266.4 57C264.2 57 262.5 56.4 261.2 55.1C260 53.8 259.3 52 259.3 49.7C259.3 48.9 259.4 48.1 259.5 47.2L262 34H269L266.8 46.4C266.7 46.8 266.7 47.2 266.7 47.6C266.7 48.8 267 49.7 267.7 50.3C268.4 50.9 269.3 51.3 270.4 51.3C271.8 51.3 273 50.9 274 50C275 49.1 275.6 47.8 275.9 46.2V46.4L278 34H285Z" fill="#FF872C"/>
<path d="M293.4 48.4C293.3 48.8 293.3 49 293.3 49.2C293.3 49.8 293.5 50.2 293.8 50.4C294.1 50.7 294.7 50.8 295.4 50.8H297.6L296.5 56.8H293.3C291 56.8 289.2 56.3 288 55.4C286.8 54.5 286.1 52.9 286.1 50.7C286.1 49.8 286.2 49 286.3 48.3L287.8 39.9H284.8L285.9 34H288.9L289.9 28.4H296.9L295.9 34H300.4L299.4 39.9H295L293.4 48.4Z" fill="#FF872C"/>
<path d="M319.3 34.9C320.8 35.7 322 36.8 322.9 38.2C323.8 39.7 324.2 41.4 324.2 43.4C324.2 44.2 324.1 45.1 324 46.1C323.6 48.4 322.7 50.3 321.4 52C320.1 53.7 318.5 54.9 316.6 55.8C314.7 56.7 312.6 57.1 310.4 57.1C308.4 57.1 306.6 56.7 305 55.9C303.4 55.1 302.2 54 301.4 52.6C300.5 51.2 300.1 49.4 300.1 47.4C300.1 46.6 300.2 45.7 300.3 44.7C300.7 42.4 301.6 40.5 302.9 38.8C304.2 37.1 305.8 35.8 307.8 35C309.7 34.1 311.8 33.7 314 33.7C315.9 33.7 317.7 34.1 319.3 34.9ZM309.5 41.2C308.4 42.2 307.7 43.6 307.4 45.4C307.3 46.1 307.2 46.6 307.2 46.9C307.2 48.2 307.6 49.3 308.3 49.9C309 50.6 310 50.9 311.1 50.9C312.4 50.9 313.6 50.4 314.7 49.5C315.8 48.5 316.5 47.2 316.8 45.3C316.9 44.8 316.9 44.3 316.9 43.8C316.9 42.5 316.5 41.4 315.8 40.7C315.1 40 314.2 39.6 313 39.6C311.7 39.8 310.5 40.3 309.5 41.2Z" fill="#FF872C"/>
<path d="M342.5 35.9C344.2 37.3 345.1 39.2 345.3 41.6H338.4C338.4 40.6 338 39.9 337.3 39.4C336.6 38.9 335.7 38.6 334.5 38.6C333.7 38.6 333 38.8 332.4 39.1C331.8 39.4 331.6 39.9 331.6 40.5C331.6 41.1 332 41.6 332.7 42C333.4 42.4 334.6 42.7 336.1 43.1C337.8 43.6 339.1 44 340.2 44.4C341.2 44.8 342.2 45.5 342.9 46.3C343.7 47.2 344 48.3 344 49.7C344 50.3 343.9 50.8 343.8 51.3C343.5 53 342.5 54.4 340.8 55.5C339.2 56.6 336.9 57.1 334.2 57.1C331.1 57.1 328.6 56.4 326.8 55C324.9 53.6 323.9 51.7 323.8 49.2H330.7C330.6 50.2 331 50.9 331.7 51.4C332.5 51.9 333.5 52.2 334.8 52.2C335.7 52.2 336.4 52 336.9 51.6C337.4 51.2 337.6 50.7 337.6 50.1C337.6 49.4 337.2 48.9 336.5 48.6C335.8 48.3 334.6 47.9 333.1 47.4C331.5 47 330.2 46.6 329.2 46.2C328.2 45.8 327.3 45.2 326.5 44.3C325.7 43.5 325.4 42.4 325.4 41C325.4 40.7 325.5 40.2 325.6 39.5C325.9 37.8 326.8 36.4 328.5 35.3C330.2 34.2 332.4 33.6 335.2 33.6C338.4 33.7 340.8 34.5 342.5 35.9Z" fill="#FF872C"/>
<path d="M194.3 13.6C190.4 11.5 186.3 10.1 182.2 9.3C178.1 8.5 173.8 8.5 169.7 9C169.2 9 168.7 9.2 168.1 9.3C167.6 9.4 167.1 9.5 166.6 9.6C165.6 9.8 164.6 10.1 163.5 10.4C161.5 11.1 159.5 11.8 157.5 12.8C153.5 14.7 149.8 17.4 146 20.6C146.6 18.2 147.7 15.9 149.1 13.7C150.5 11.5 152.2 9.6 154.2 7.8C156.2 6.1 158.4 4.59999 160.7 3.39999L162.5 2.6C163.1 2.3 163.7 2.09999 164.4 1.89999C165.7 1.39999 167 1.1 168.3 0.800001C173.5 -0.299999 179.1 -0.199999 184.2 1.3C189.4 2.8 194.1 5.6 197.7 9.3L194.3 13.6Z" fill="#FF872C"/>
<path d="M200.2 3.89999L204.3 20.6L187.7 15.8L200.2 3.89999Z" fill="#FF872C"/>
<path d="M91.6 67.5C95.5 69.6 99.6 71 103.7 71.8C107.8 72.6 112.1 72.6 116.2 72.1C116.7 72.1 117.2 71.9 117.8 71.8C118.3 71.7 118.8 71.6 119.3 71.5C120.3 71.3 121.3 71 122.4 70.7C124.4 70 126.4 69.3 128.4 68.3C132.4 66.4 136.1 63.7 139.9 60.5C139.3 62.9 138.2 65.2 136.8 67.4C135.4 69.6 133.7 71.5 131.7 73.3C129.7 75 127.5 76.5 125.2 77.7L123.4 78.5C122.8 78.8 122.2 79 121.5 79.2C120.2 79.7 118.9 80 117.6 80.3C112.4 81.4 106.8 81.3 101.7 79.8C96.5 78.3 91.8 75.5 88.2 71.8L91.6 67.5Z" fill="#FF872C"/>
<path d="M85.7 77.2L81.6 60.5L98.2 65.3L85.7 77.2Z" fill="#FF872C"/>
</svg>
